<mxfile host="app.diagrams.net" modified="2023-05-14T11:51:20.769Z" agent="Mozilla/5.0 (X11; Linux x86_64; rv:109.0) Gecko/20100101 Firefox/112.0" etag="f_ad1PSdIuqb7sKWp0TN" version="21.3.0" type="github">
  <diagram id="C5RBs43oDa-KdzZeNtuy" name="Page-1">
    <mxGraphModel dx="2165" dy="726" grid="1" gridSize="10" guides="1" tooltips="1" connect="1" arrows="1" fold="1" page="1" pageScale="1" pageWidth="827" pageHeight="1169" math="0" shadow="0">
      <root>
        <mxCell id="WIyWlLk6GJQsqaUBKTNV-0" />
        <mxCell id="WIyWlLk6GJQsqaUBKTNV-1" parent="WIyWlLk6GJQsqaUBKTNV-0" />
        <mxCell id="leTBzGV57b9p9-Zr7ypj-93" value="" style="rounded=0;whiteSpace=wrap;html=1;" vertex="1" parent="WIyWlLk6GJQsqaUBKTNV-1">
          <mxGeometry x="-550" y="660" width="1850" height="980" as="geometry" />
        </mxCell>
        <mxCell id="leTBzGV57b9p9-Zr7ypj-17" value="" style="whiteSpace=wrap;html=1;aspect=fixed;" vertex="1" parent="WIyWlLk6GJQsqaUBKTNV-1">
          <mxGeometry x="40" y="130" width="500" height="500" as="geometry" />
        </mxCell>
        <mxCell id="WIyWlLk6GJQsqaUBKTNV-2" value="" style="rounded=0;html=1;jettySize=auto;orthogonalLoop=1;fontSize=11;endArrow=block;endFill=0;endSize=8;strokeWidth=1;shadow=0;labelBackgroundColor=none;edgeStyle=orthogonalEdgeStyle;" parent="WIyWlLk6GJQsqaUBKTNV-1" source="WIyWlLk6GJQsqaUBKTNV-3" target="WIyWlLk6GJQsqaUBKTNV-6" edge="1">
          <mxGeometry relative="1" as="geometry" />
        </mxCell>
        <mxCell id="WIyWlLk6GJQsqaUBKTNV-3" value="Git Providers" style="rounded=1;whiteSpace=wrap;html=1;fontSize=12;glass=0;strokeWidth=1;shadow=0;" parent="WIyWlLk6GJQsqaUBKTNV-1" vertex="1">
          <mxGeometry x="152.5" y="40" width="120" height="40" as="geometry" />
        </mxCell>
        <mxCell id="WIyWlLk6GJQsqaUBKTNV-4" value="Yes" style="rounded=0;html=1;jettySize=auto;orthogonalLoop=1;fontSize=11;endArrow=block;endFill=0;endSize=8;strokeWidth=1;shadow=0;labelBackgroundColor=none;edgeStyle=orthogonalEdgeStyle;" parent="WIyWlLk6GJQsqaUBKTNV-1" source="WIyWlLk6GJQsqaUBKTNV-6" target="WIyWlLk6GJQsqaUBKTNV-10" edge="1">
          <mxGeometry y="20" relative="1" as="geometry">
            <mxPoint as="offset" />
          </mxGeometry>
        </mxCell>
        <mxCell id="WIyWlLk6GJQsqaUBKTNV-5" value="No" style="edgeStyle=orthogonalEdgeStyle;rounded=0;html=1;jettySize=auto;orthogonalLoop=1;fontSize=11;endArrow=block;endFill=0;endSize=8;strokeWidth=1;shadow=0;labelBackgroundColor=none;" parent="WIyWlLk6GJQsqaUBKTNV-1" source="WIyWlLk6GJQsqaUBKTNV-6" target="WIyWlLk6GJQsqaUBKTNV-7" edge="1">
          <mxGeometry x="0.0069" y="10" relative="1" as="geometry">
            <mxPoint as="offset" />
          </mxGeometry>
        </mxCell>
        <mxCell id="WIyWlLk6GJQsqaUBKTNV-6" value="Is authorized ?" style="rhombus;whiteSpace=wrap;html=1;shadow=0;fontFamily=Helvetica;fontSize=12;align=center;strokeWidth=1;spacing=6;spacingTop=-4;" parent="WIyWlLk6GJQsqaUBKTNV-1" vertex="1">
          <mxGeometry x="145" y="170" width="135" height="80" as="geometry" />
        </mxCell>
        <mxCell id="WIyWlLk6GJQsqaUBKTNV-7" value="Discard" style="rounded=1;whiteSpace=wrap;html=1;fontSize=12;glass=0;strokeWidth=1;shadow=0;" parent="WIyWlLk6GJQsqaUBKTNV-1" vertex="1">
          <mxGeometry x="380" y="190" width="120" height="40" as="geometry" />
        </mxCell>
        <mxCell id="WIyWlLk6GJQsqaUBKTNV-10" value="Payload is&amp;nbsp;&amp;nbsp;&amp;nbsp;&amp;nbsp;&amp;nbsp; supported event ?" style="rhombus;whiteSpace=wrap;html=1;shadow=0;fontFamily=Helvetica;fontSize=12;align=center;strokeWidth=1;spacing=6;spacingTop=-4;" parent="WIyWlLk6GJQsqaUBKTNV-1" vertex="1">
          <mxGeometry x="147.5" y="290" width="130" height="100" as="geometry" />
        </mxCell>
        <mxCell id="leTBzGV57b9p9-Zr7ypj-0" value="Discard" style="rounded=1;whiteSpace=wrap;html=1;fontSize=12;glass=0;strokeWidth=1;shadow=0;" vertex="1" parent="WIyWlLk6GJQsqaUBKTNV-1">
          <mxGeometry x="380" y="320" width="120" height="40" as="geometry" />
        </mxCell>
        <mxCell id="leTBzGV57b9p9-Zr7ypj-15" value="" style="edgeStyle=orthogonalEdgeStyle;rounded=0;orthogonalLoop=1;jettySize=auto;html=1;" edge="1" parent="WIyWlLk6GJQsqaUBKTNV-1" source="leTBzGV57b9p9-Zr7ypj-5" target="leTBzGV57b9p9-Zr7ypj-14">
          <mxGeometry relative="1" as="geometry" />
        </mxCell>
        <mxCell id="leTBzGV57b9p9-Zr7ypj-5" value="Payload is valid&lt;br&gt; format ?" style="rhombus;whiteSpace=wrap;html=1;shadow=0;fontFamily=Helvetica;fontSize=12;align=center;strokeWidth=1;spacing=6;spacingTop=-4;" vertex="1" parent="WIyWlLk6GJQsqaUBKTNV-1">
          <mxGeometry x="147.5" y="420" width="130" height="100" as="geometry" />
        </mxCell>
        <mxCell id="leTBzGV57b9p9-Zr7ypj-6" value="Discard" style="rounded=1;whiteSpace=wrap;html=1;fontSize=12;glass=0;strokeWidth=1;shadow=0;" vertex="1" parent="WIyWlLk6GJQsqaUBKTNV-1">
          <mxGeometry x="380" y="450" width="120" height="40" as="geometry" />
        </mxCell>
        <mxCell id="leTBzGV57b9p9-Zr7ypj-9" value="No" style="edgeStyle=orthogonalEdgeStyle;rounded=0;html=1;jettySize=auto;orthogonalLoop=1;fontSize=11;endArrow=block;endFill=0;endSize=8;strokeWidth=1;shadow=0;labelBackgroundColor=none;entryX=0;entryY=0.5;entryDx=0;entryDy=0;exitX=0.97;exitY=0.502;exitDx=0;exitDy=0;exitPerimeter=0;" edge="1" parent="WIyWlLk6GJQsqaUBKTNV-1" source="WIyWlLk6GJQsqaUBKTNV-10" target="leTBzGV57b9p9-Zr7ypj-0">
          <mxGeometry x="0.0069" y="10" relative="1" as="geometry">
            <mxPoint as="offset" />
            <mxPoint x="280" y="340" as="sourcePoint" />
            <mxPoint x="390" y="220" as="targetPoint" />
          </mxGeometry>
        </mxCell>
        <mxCell id="leTBzGV57b9p9-Zr7ypj-10" value="No" style="edgeStyle=orthogonalEdgeStyle;rounded=0;html=1;jettySize=auto;orthogonalLoop=1;fontSize=11;endArrow=block;endFill=0;endSize=8;strokeWidth=1;shadow=0;labelBackgroundColor=none;entryX=0;entryY=0.5;entryDx=0;entryDy=0;exitX=1;exitY=0.5;exitDx=0;exitDy=0;" edge="1" parent="WIyWlLk6GJQsqaUBKTNV-1" source="leTBzGV57b9p9-Zr7ypj-5" target="leTBzGV57b9p9-Zr7ypj-6">
          <mxGeometry x="0.0069" y="10" relative="1" as="geometry">
            <mxPoint as="offset" />
            <mxPoint x="300" y="230" as="sourcePoint" />
            <mxPoint x="400" y="230" as="targetPoint" />
          </mxGeometry>
        </mxCell>
        <mxCell id="leTBzGV57b9p9-Zr7ypj-12" value="Yes" style="rounded=0;html=1;jettySize=auto;orthogonalLoop=1;fontSize=11;endArrow=block;endFill=0;endSize=8;strokeWidth=1;shadow=0;labelBackgroundColor=none;edgeStyle=orthogonalEdgeStyle;exitX=0.5;exitY=1;exitDx=0;exitDy=0;entryX=0.5;entryY=0;entryDx=0;entryDy=0;" edge="1" parent="WIyWlLk6GJQsqaUBKTNV-1" source="WIyWlLk6GJQsqaUBKTNV-10" target="leTBzGV57b9p9-Zr7ypj-5">
          <mxGeometry y="20" relative="1" as="geometry">
            <mxPoint as="offset" />
            <mxPoint x="223" y="260" as="sourcePoint" />
            <mxPoint x="223" y="300" as="targetPoint" />
          </mxGeometry>
        </mxCell>
        <mxCell id="leTBzGV57b9p9-Zr7ypj-14" value="Push to Redis" style="rounded=1;whiteSpace=wrap;html=1;fontSize=12;glass=0;strokeWidth=1;shadow=0;" vertex="1" parent="WIyWlLk6GJQsqaUBKTNV-1">
          <mxGeometry x="152.5" y="560" width="120" height="40" as="geometry" />
        </mxCell>
        <mxCell id="leTBzGV57b9p9-Zr7ypj-18" value="Webhook Receiver" style="text;strokeColor=none;align=center;fillColor=none;html=1;verticalAlign=middle;whiteSpace=wrap;rounded=0;" vertex="1" parent="WIyWlLk6GJQsqaUBKTNV-1">
          <mxGeometry x="40" y="130" width="120" height="30" as="geometry" />
        </mxCell>
        <mxCell id="leTBzGV57b9p9-Zr7ypj-23" value="" style="edgeStyle=orthogonalEdgeStyle;rounded=0;orthogonalLoop=1;jettySize=auto;html=1;" edge="1" parent="WIyWlLk6GJQsqaUBKTNV-1" source="leTBzGV57b9p9-Zr7ypj-19" target="leTBzGV57b9p9-Zr7ypj-20">
          <mxGeometry relative="1" as="geometry" />
        </mxCell>
        <mxCell id="leTBzGV57b9p9-Zr7ypj-46" value="" style="edgeStyle=orthogonalEdgeStyle;rounded=0;orthogonalLoop=1;jettySize=auto;html=1;" edge="1" parent="WIyWlLk6GJQsqaUBKTNV-1" source="leTBzGV57b9p9-Zr7ypj-19" target="leTBzGV57b9p9-Zr7ypj-21">
          <mxGeometry relative="1" as="geometry" />
        </mxCell>
        <mxCell id="leTBzGV57b9p9-Zr7ypj-83" style="edgeStyle=orthogonalEdgeStyle;rounded=0;orthogonalLoop=1;jettySize=auto;html=1;exitX=1;exitY=0.5;exitDx=0;exitDy=0;entryX=0.5;entryY=0;entryDx=0;entryDy=0;" edge="1" parent="WIyWlLk6GJQsqaUBKTNV-1" source="leTBzGV57b9p9-Zr7ypj-19" target="leTBzGV57b9p9-Zr7ypj-22">
          <mxGeometry relative="1" as="geometry" />
        </mxCell>
        <mxCell id="leTBzGV57b9p9-Zr7ypj-19" value="Pull event from Redis" style="rounded=1;whiteSpace=wrap;html=1;fontSize=12;glass=0;strokeWidth=1;shadow=0;" vertex="1" parent="WIyWlLk6GJQsqaUBKTNV-1">
          <mxGeometry x="365" y="700" width="120" height="40" as="geometry" />
        </mxCell>
        <mxCell id="leTBzGV57b9p9-Zr7ypj-36" value="No" style="edgeStyle=orthogonalEdgeStyle;rounded=0;orthogonalLoop=1;jettySize=auto;html=1;" edge="1" parent="WIyWlLk6GJQsqaUBKTNV-1" source="leTBzGV57b9p9-Zr7ypj-20" target="leTBzGV57b9p9-Zr7ypj-35">
          <mxGeometry relative="1" as="geometry" />
        </mxCell>
        <mxCell id="leTBzGV57b9p9-Zr7ypj-40" value="Yes" style="edgeStyle=orthogonalEdgeStyle;rounded=0;orthogonalLoop=1;jettySize=auto;html=1;" edge="1" parent="WIyWlLk6GJQsqaUBKTNV-1" source="leTBzGV57b9p9-Zr7ypj-20" target="leTBzGV57b9p9-Zr7ypj-39">
          <mxGeometry relative="1" as="geometry" />
        </mxCell>
        <mxCell id="leTBzGV57b9p9-Zr7ypj-20" value="Is Push Event ?" style="rhombus;whiteSpace=wrap;html=1;" vertex="1" parent="WIyWlLk6GJQsqaUBKTNV-1">
          <mxGeometry x="-230" y="800" width="110" height="80" as="geometry" />
        </mxCell>
        <mxCell id="leTBzGV57b9p9-Zr7ypj-48" value="" style="edgeStyle=orthogonalEdgeStyle;rounded=0;orthogonalLoop=1;jettySize=auto;html=1;" edge="1" parent="WIyWlLk6GJQsqaUBKTNV-1" source="leTBzGV57b9p9-Zr7ypj-21" target="leTBzGV57b9p9-Zr7ypj-47">
          <mxGeometry relative="1" as="geometry">
            <Array as="points">
              <mxPoint x="105" y="860" />
            </Array>
          </mxGeometry>
        </mxCell>
        <mxCell id="leTBzGV57b9p9-Zr7ypj-50" style="edgeStyle=orthogonalEdgeStyle;rounded=0;orthogonalLoop=1;jettySize=auto;html=1;exitX=0.5;exitY=1;exitDx=0;exitDy=0;entryX=0.5;entryY=0;entryDx=0;entryDy=0;" edge="1" parent="WIyWlLk6GJQsqaUBKTNV-1" source="leTBzGV57b9p9-Zr7ypj-21" target="leTBzGV57b9p9-Zr7ypj-49">
          <mxGeometry relative="1" as="geometry" />
        </mxCell>
        <mxCell id="leTBzGV57b9p9-Zr7ypj-52" style="edgeStyle=orthogonalEdgeStyle;rounded=0;orthogonalLoop=1;jettySize=auto;html=1;exitX=0.5;exitY=1;exitDx=0;exitDy=0;entryX=0.5;entryY=0;entryDx=0;entryDy=0;" edge="1" parent="WIyWlLk6GJQsqaUBKTNV-1" source="leTBzGV57b9p9-Zr7ypj-21" target="leTBzGV57b9p9-Zr7ypj-51">
          <mxGeometry relative="1" as="geometry">
            <Array as="points">
              <mxPoint x="777" y="860" />
            </Array>
          </mxGeometry>
        </mxCell>
        <mxCell id="leTBzGV57b9p9-Zr7ypj-21" value="&lt;div&gt;Is Pull Request Event ?&lt;/div&gt;" style="rhombus;whiteSpace=wrap;html=1;" vertex="1" parent="WIyWlLk6GJQsqaUBKTNV-1">
          <mxGeometry x="370" y="780" width="110" height="80" as="geometry" />
        </mxCell>
        <mxCell id="leTBzGV57b9p9-Zr7ypj-86" value="Yes" style="edgeStyle=orthogonalEdgeStyle;rounded=0;orthogonalLoop=1;jettySize=auto;html=1;" edge="1" parent="WIyWlLk6GJQsqaUBKTNV-1" source="leTBzGV57b9p9-Zr7ypj-22" target="leTBzGV57b9p9-Zr7ypj-85">
          <mxGeometry relative="1" as="geometry" />
        </mxCell>
        <mxCell id="leTBzGV57b9p9-Zr7ypj-22" value="Is Pull Request comment event ?" style="rhombus;whiteSpace=wrap;html=1;" vertex="1" parent="WIyWlLk6GJQsqaUBKTNV-1">
          <mxGeometry x="1100" y="780" width="130" height="80" as="geometry" />
        </mxCell>
        <mxCell id="leTBzGV57b9p9-Zr7ypj-30" value="Yes" style="edgeStyle=orthogonalEdgeStyle;rounded=0;orthogonalLoop=1;jettySize=auto;html=1;" edge="1" parent="WIyWlLk6GJQsqaUBKTNV-1" source="leTBzGV57b9p9-Zr7ypj-25" target="leTBzGV57b9p9-Zr7ypj-29">
          <mxGeometry relative="1" as="geometry" />
        </mxCell>
        <mxCell id="leTBzGV57b9p9-Zr7ypj-38" value="No" style="edgeStyle=orthogonalEdgeStyle;rounded=0;orthogonalLoop=1;jettySize=auto;html=1;" edge="1" parent="WIyWlLk6GJQsqaUBKTNV-1" source="leTBzGV57b9p9-Zr7ypj-25" target="leTBzGV57b9p9-Zr7ypj-37">
          <mxGeometry relative="1" as="geometry" />
        </mxCell>
        <mxCell id="leTBzGV57b9p9-Zr7ypj-25" value="Env has auto-deploy&lt;br&gt; activated ?" style="rhombus;whiteSpace=wrap;html=1;" vertex="1" parent="WIyWlLk6GJQsqaUBKTNV-1">
          <mxGeometry x="-245" y="1040" width="140" height="80" as="geometry" />
        </mxCell>
        <mxCell id="leTBzGV57b9p9-Zr7ypj-29" value="Update commit Id of aplpications" style="rounded=1;whiteSpace=wrap;html=1;fontSize=12;glass=0;strokeWidth=1;shadow=0;" vertex="1" parent="WIyWlLk6GJQsqaUBKTNV-1">
          <mxGeometry x="-235" y="1170" width="120" height="40" as="geometry" />
        </mxCell>
        <mxCell id="leTBzGV57b9p9-Zr7ypj-35" value="Discard" style="rounded=1;whiteSpace=wrap;html=1;fontSize=12;glass=0;strokeWidth=1;shadow=0;" vertex="1" parent="WIyWlLk6GJQsqaUBKTNV-1">
          <mxGeometry x="-450" y="820" width="120" height="40" as="geometry" />
        </mxCell>
        <mxCell id="leTBzGV57b9p9-Zr7ypj-37" value="Discard" style="rounded=1;whiteSpace=wrap;html=1;fontSize=12;glass=0;strokeWidth=1;shadow=0;" vertex="1" parent="WIyWlLk6GJQsqaUBKTNV-1">
          <mxGeometry x="-450" y="1060" width="120" height="40" as="geometry" />
        </mxCell>
        <mxCell id="leTBzGV57b9p9-Zr7ypj-42" value="Yes" style="edgeStyle=orthogonalEdgeStyle;rounded=0;orthogonalLoop=1;jettySize=auto;html=1;" edge="1" parent="WIyWlLk6GJQsqaUBKTNV-1" source="leTBzGV57b9p9-Zr7ypj-39" target="leTBzGV57b9p9-Zr7ypj-25">
          <mxGeometry relative="1" as="geometry" />
        </mxCell>
        <mxCell id="leTBzGV57b9p9-Zr7ypj-45" value="No" style="edgeStyle=orthogonalEdgeStyle;rounded=0;orthogonalLoop=1;jettySize=auto;html=1;" edge="1" parent="WIyWlLk6GJQsqaUBKTNV-1" source="leTBzGV57b9p9-Zr7ypj-39" target="leTBzGV57b9p9-Zr7ypj-44">
          <mxGeometry relative="1" as="geometry" />
        </mxCell>
        <mxCell id="leTBzGV57b9p9-Zr7ypj-39" value="&lt;div&gt;Git repository and &lt;br&gt;branch match &lt;br&gt;some applications ?&lt;br&gt;&lt;/div&gt;" style="rhombus;whiteSpace=wrap;html=1;" vertex="1" parent="WIyWlLk6GJQsqaUBKTNV-1">
          <mxGeometry x="-270" y="900" width="190" height="120" as="geometry" />
        </mxCell>
        <mxCell id="leTBzGV57b9p9-Zr7ypj-44" value="Discard" style="rounded=1;whiteSpace=wrap;html=1;fontSize=12;glass=0;strokeWidth=1;shadow=0;" vertex="1" parent="WIyWlLk6GJQsqaUBKTNV-1">
          <mxGeometry x="-450" y="940" width="120" height="40" as="geometry" />
        </mxCell>
        <mxCell id="leTBzGV57b9p9-Zr7ypj-57" value="Yes" style="edgeStyle=orthogonalEdgeStyle;rounded=0;orthogonalLoop=1;jettySize=auto;html=1;" edge="1" parent="WIyWlLk6GJQsqaUBKTNV-1" source="leTBzGV57b9p9-Zr7ypj-47" target="leTBzGV57b9p9-Zr7ypj-56">
          <mxGeometry relative="1" as="geometry" />
        </mxCell>
        <mxCell id="leTBzGV57b9p9-Zr7ypj-47" value="&lt;div&gt;Is Update event ? &lt;br&gt;&lt;/div&gt;" style="rhombus;whiteSpace=wrap;html=1;" vertex="1" parent="WIyWlLk6GJQsqaUBKTNV-1">
          <mxGeometry x="50" y="920" width="110" height="80" as="geometry" />
        </mxCell>
        <mxCell id="leTBzGV57b9p9-Zr7ypj-60" value="Yes" style="edgeStyle=orthogonalEdgeStyle;rounded=0;orthogonalLoop=1;jettySize=auto;html=1;entryX=0.5;entryY=0;entryDx=0;entryDy=0;" edge="1" parent="WIyWlLk6GJQsqaUBKTNV-1" source="leTBzGV57b9p9-Zr7ypj-49" target="leTBzGV57b9p9-Zr7ypj-61">
          <mxGeometry relative="1" as="geometry">
            <mxPoint x="430" y="1080" as="targetPoint" />
          </mxGeometry>
        </mxCell>
        <mxCell id="leTBzGV57b9p9-Zr7ypj-49" value="&lt;div&gt;Is Create event ? &lt;br&gt;&lt;/div&gt;" style="rhombus;whiteSpace=wrap;html=1;" vertex="1" parent="WIyWlLk6GJQsqaUBKTNV-1">
          <mxGeometry x="370" y="920" width="110" height="80" as="geometry" />
        </mxCell>
        <mxCell id="leTBzGV57b9p9-Zr7ypj-75" value="Yes" style="edgeStyle=orthogonalEdgeStyle;rounded=0;orthogonalLoop=1;jettySize=auto;html=1;" edge="1" parent="WIyWlLk6GJQsqaUBKTNV-1" source="leTBzGV57b9p9-Zr7ypj-51" target="leTBzGV57b9p9-Zr7ypj-74">
          <mxGeometry relative="1" as="geometry" />
        </mxCell>
        <mxCell id="leTBzGV57b9p9-Zr7ypj-51" value="&lt;div&gt;Is Close event ? &lt;br&gt;&lt;/div&gt;" style="rhombus;whiteSpace=wrap;html=1;" vertex="1" parent="WIyWlLk6GJQsqaUBKTNV-1">
          <mxGeometry x="722.5" y="920" width="110" height="80" as="geometry" />
        </mxCell>
        <mxCell id="leTBzGV57b9p9-Zr7ypj-58" style="edgeStyle=orthogonalEdgeStyle;rounded=0;orthogonalLoop=1;jettySize=auto;html=1;exitX=0;exitY=0.5;exitDx=0;exitDy=0;entryX=1;entryY=0.5;entryDx=0;entryDy=0;" edge="1" parent="WIyWlLk6GJQsqaUBKTNV-1" source="leTBzGV57b9p9-Zr7ypj-56" target="leTBzGV57b9p9-Zr7ypj-20">
          <mxGeometry relative="1" as="geometry">
            <Array as="points">
              <mxPoint x="-20" y="1090" />
              <mxPoint x="-20" y="840" />
            </Array>
          </mxGeometry>
        </mxCell>
        <mxCell id="leTBzGV57b9p9-Zr7ypj-56" value="Transform PR to Push event" style="rounded=1;whiteSpace=wrap;html=1;fontSize=12;glass=0;strokeWidth=1;shadow=0;" vertex="1" parent="WIyWlLk6GJQsqaUBKTNV-1">
          <mxGeometry x="45" y="1070" width="120" height="40" as="geometry" />
        </mxCell>
        <mxCell id="leTBzGV57b9p9-Zr7ypj-63" value="Yes" style="edgeStyle=orthogonalEdgeStyle;rounded=0;orthogonalLoop=1;jettySize=auto;html=1;" edge="1" parent="WIyWlLk6GJQsqaUBKTNV-1" source="leTBzGV57b9p9-Zr7ypj-61" target="leTBzGV57b9p9-Zr7ypj-62">
          <mxGeometry relative="1" as="geometry" />
        </mxCell>
        <mxCell id="leTBzGV57b9p9-Zr7ypj-61" value="&lt;div&gt;Git repository and &lt;br&gt;branch match &lt;br&gt;some applications ?&lt;br&gt;&lt;/div&gt;" style="rhombus;whiteSpace=wrap;html=1;" vertex="1" parent="WIyWlLk6GJQsqaUBKTNV-1">
          <mxGeometry x="330" y="1060" width="190" height="120" as="geometry" />
        </mxCell>
        <mxCell id="leTBzGV57b9p9-Zr7ypj-65" value="Yes" style="edgeStyle=orthogonalEdgeStyle;rounded=0;orthogonalLoop=1;jettySize=auto;html=1;" edge="1" parent="WIyWlLk6GJQsqaUBKTNV-1" source="leTBzGV57b9p9-Zr7ypj-62" target="leTBzGV57b9p9-Zr7ypj-64">
          <mxGeometry relative="1" as="geometry" />
        </mxCell>
        <mxCell id="leTBzGV57b9p9-Zr7ypj-69" value="No" style="edgeStyle=orthogonalEdgeStyle;rounded=0;orthogonalLoop=1;jettySize=auto;html=1;" edge="1" parent="WIyWlLk6GJQsqaUBKTNV-1" source="leTBzGV57b9p9-Zr7ypj-62" target="leTBzGV57b9p9-Zr7ypj-68">
          <mxGeometry relative="1" as="geometry" />
        </mxCell>
        <mxCell id="leTBzGV57b9p9-Zr7ypj-62" value="Env has auto-preview enabled ?" style="rhombus;whiteSpace=wrap;html=1;" vertex="1" parent="WIyWlLk6GJQsqaUBKTNV-1">
          <mxGeometry x="355" y="1220" width="140" height="80" as="geometry" />
        </mxCell>
        <mxCell id="leTBzGV57b9p9-Zr7ypj-67" value="" style="edgeStyle=orthogonalEdgeStyle;rounded=0;orthogonalLoop=1;jettySize=auto;html=1;" edge="1" parent="WIyWlLk6GJQsqaUBKTNV-1" source="leTBzGV57b9p9-Zr7ypj-64" target="leTBzGV57b9p9-Zr7ypj-66">
          <mxGeometry relative="1" as="geometry" />
        </mxCell>
        <mxCell id="leTBzGV57b9p9-Zr7ypj-64" value="Create a Preview environment" style="rounded=1;whiteSpace=wrap;html=1;fontSize=12;glass=0;strokeWidth=1;shadow=0;" vertex="1" parent="WIyWlLk6GJQsqaUBKTNV-1">
          <mxGeometry x="365" y="1340" width="120" height="40" as="geometry" />
        </mxCell>
        <mxCell id="leTBzGV57b9p9-Zr7ypj-81" value="" style="edgeStyle=orthogonalEdgeStyle;rounded=0;orthogonalLoop=1;jettySize=auto;html=1;" edge="1" parent="WIyWlLk6GJQsqaUBKTNV-1" source="leTBzGV57b9p9-Zr7ypj-66" target="leTBzGV57b9p9-Zr7ypj-80">
          <mxGeometry relative="1" as="geometry" />
        </mxCell>
        <mxCell id="leTBzGV57b9p9-Zr7ypj-66" value="Post comment on PR to inform users&lt;br&gt;of new URLs" style="rounded=1;whiteSpace=wrap;html=1;fontSize=12;glass=0;strokeWidth=1;shadow=0;" vertex="1" parent="WIyWlLk6GJQsqaUBKTNV-1">
          <mxGeometry x="365" y="1430" width="120" height="50" as="geometry" />
        </mxCell>
        <mxCell id="leTBzGV57b9p9-Zr7ypj-71" value="Yes" style="edgeStyle=orthogonalEdgeStyle;rounded=0;orthogonalLoop=1;jettySize=auto;html=1;" edge="1" parent="WIyWlLk6GJQsqaUBKTNV-1" source="leTBzGV57b9p9-Zr7ypj-68" target="leTBzGV57b9p9-Zr7ypj-70">
          <mxGeometry relative="1" as="geometry" />
        </mxCell>
        <mxCell id="leTBzGV57b9p9-Zr7ypj-68" value="Env has on-demand-preview enabled ?" style="rhombus;whiteSpace=wrap;html=1;" vertex="1" parent="WIyWlLk6GJQsqaUBKTNV-1">
          <mxGeometry x="165" y="1220" width="150" height="80" as="geometry" />
        </mxCell>
        <mxCell id="leTBzGV57b9p9-Zr7ypj-70" value="Post comment on PR to inform users&lt;br&gt;of Commands" style="rounded=1;whiteSpace=wrap;html=1;fontSize=12;glass=0;strokeWidth=1;shadow=0;" vertex="1" parent="WIyWlLk6GJQsqaUBKTNV-1">
          <mxGeometry x="180" y="1340" width="120" height="50" as="geometry" />
        </mxCell>
        <mxCell id="leTBzGV57b9p9-Zr7ypj-72" value="Push command to redis to Delete environment" style="rounded=1;whiteSpace=wrap;html=1;fontSize=12;glass=0;strokeWidth=1;shadow=0;" vertex="1" parent="WIyWlLk6GJQsqaUBKTNV-1">
          <mxGeometry x="717.5" y="1150" width="120" height="50" as="geometry" />
        </mxCell>
        <mxCell id="leTBzGV57b9p9-Zr7ypj-82" value="Yes" style="edgeStyle=orthogonalEdgeStyle;rounded=0;orthogonalLoop=1;jettySize=auto;html=1;" edge="1" parent="WIyWlLk6GJQsqaUBKTNV-1" source="leTBzGV57b9p9-Zr7ypj-74" target="leTBzGV57b9p9-Zr7ypj-72">
          <mxGeometry relative="1" as="geometry" />
        </mxCell>
        <mxCell id="leTBzGV57b9p9-Zr7ypj-74" value="Env has auto-destroy enabled ?" style="rhombus;whiteSpace=wrap;html=1;" vertex="1" parent="WIyWlLk6GJQsqaUBKTNV-1">
          <mxGeometry x="710" y="1030" width="135" height="80" as="geometry" />
        </mxCell>
        <mxCell id="leTBzGV57b9p9-Zr7ypj-80" value="Push command to redis to deploy new env" style="rounded=1;whiteSpace=wrap;html=1;fontSize=12;glass=0;strokeWidth=1;shadow=0;" vertex="1" parent="WIyWlLk6GJQsqaUBKTNV-1">
          <mxGeometry x="365" y="1530" width="120" height="50" as="geometry" />
        </mxCell>
        <mxCell id="leTBzGV57b9p9-Zr7ypj-89" value="Yes" style="edgeStyle=orthogonalEdgeStyle;rounded=0;orthogonalLoop=1;jettySize=auto;html=1;" edge="1" parent="WIyWlLk6GJQsqaUBKTNV-1" source="leTBzGV57b9p9-Zr7ypj-84" target="leTBzGV57b9p9-Zr7ypj-88">
          <mxGeometry relative="1" as="geometry" />
        </mxCell>
        <mxCell id="leTBzGV57b9p9-Zr7ypj-84" value="&lt;div&gt;Command match some env matching git repository?&lt;br&gt;&lt;/div&gt;" style="rhombus;whiteSpace=wrap;html=1;" vertex="1" parent="WIyWlLk6GJQsqaUBKTNV-1">
          <mxGeometry x="1070" y="1070" width="190" height="120" as="geometry" />
        </mxCell>
        <mxCell id="leTBzGV57b9p9-Zr7ypj-87" value="Yes" style="edgeStyle=orthogonalEdgeStyle;rounded=0;orthogonalLoop=1;jettySize=auto;html=1;" edge="1" parent="WIyWlLk6GJQsqaUBKTNV-1" source="leTBzGV57b9p9-Zr7ypj-85" target="leTBzGV57b9p9-Zr7ypj-84">
          <mxGeometry relative="1" as="geometry" />
        </mxCell>
        <mxCell id="leTBzGV57b9p9-Zr7ypj-85" value="Contains Qovery command ?" style="rhombus;whiteSpace=wrap;html=1;" vertex="1" parent="WIyWlLk6GJQsqaUBKTNV-1">
          <mxGeometry x="1095" y="940" width="140" height="80" as="geometry" />
        </mxCell>
        <mxCell id="leTBzGV57b9p9-Zr7ypj-90" style="edgeStyle=orthogonalEdgeStyle;rounded=0;orthogonalLoop=1;jettySize=auto;html=1;entryX=1;entryY=0.5;entryDx=0;entryDy=0;" edge="1" parent="WIyWlLk6GJQsqaUBKTNV-1" source="leTBzGV57b9p9-Zr7ypj-88" target="leTBzGV57b9p9-Zr7ypj-62">
          <mxGeometry relative="1" as="geometry" />
        </mxCell>
        <mxCell id="leTBzGV57b9p9-Zr7ypj-88" value="Turn into Pull request Event " style="rounded=1;whiteSpace=wrap;html=1;fontSize=12;glass=0;strokeWidth=1;shadow=0;" vertex="1" parent="WIyWlLk6GJQsqaUBKTNV-1">
          <mxGeometry x="1105" y="1235" width="120" height="50" as="geometry" />
        </mxCell>
        <mxCell id="leTBzGV57b9p9-Zr7ypj-94" value="Core" style="text;strokeColor=none;align=center;fillColor=none;html=1;verticalAlign=middle;whiteSpace=wrap;rounded=0;" vertex="1" parent="WIyWlLk6GJQsqaUBKTNV-1">
          <mxGeometry x="-550" y="660" width="61" height="30" as="geometry" />
        </mxCell>
      </root>
    </mxGraphModel>
  </diagram>
</mxfile>
